<svg xmlns="http://www.w3.org/2000/svg" xmlns:xlink="http://www.w3.org/1999/xlink" width="500" zoomAndPan="magnify" viewBox="0 0 375 374.999991" height="500" preserveAspectRatio="xMidYMid meet" version="1.0"><defs><g/></defs><g fill="#020887" fill-opacity="1"><g transform="translate(81.210578, 172.785839)"><g><path d="M 140.839844 -30.355469 C 126.691406 -7.074219 93.25 39.742188 76.527344 42.574219 C 54.277344 46.433594 46.945312 4.246094 55.820312 -39.742188 C 115.757812 -51.0625 148.554688 -122.574219 109.582031 -123.21875 C 76.914062 -123.730469 53.632812 -76.269531 47.332031 -40.902344 C 2.699219 -39.742188 -20.449219 -100.582031 34.597656 -111.128906 C 37.171875 -108.683594 40 -113.183594 35.113281 -113.441406 C -21.609375 -103.410156 -3.214844 -39.101562 46.945312 -38.84375 C 39.101562 0.257812 44.246094 47.203125 74.726562 45.015625 C 94.277344 43.601562 130.292969 -7.972656 143.023438 -30.226562 C 143.023438 -30.867188 141.222656 -30.996094 140.839844 -30.355469 Z M 110.613281 -120.644531 C 144.570312 -119.875 112.671875 -53.25 56.335938 -41.929688 C 65.210938 -83.601562 87.332031 -121.160156 110.613281 -120.644531 Z M 110.613281 -120.644531 "/></g></g></g><g fill="#020887" fill-opacity="1"><g transform="translate(221.516244, 172.785839)"><g><path d="M 17.75 16.464844 C 29.324219 7.847656 45.660156 -20.964844 52.734375 -30.226562 C 52.734375 -30.867188 51.0625 -30.867188 50.546875 -30.355469 C 45.015625 -23.28125 26.496094 8.488281 15.433594 15.820312 C 1.542969 24.695312 4.628906 -1.671875 5.402344 -8.875 C 6.429688 -19.421875 8.488281 -30.484375 9.773438 -35.757812 C 51.832031 -82.960938 46.816406 -107.910156 33.828125 -107.910156 C 18.007812 -107.910156 6.300781 -76.398438 1.15625 -44.117188 C -0.898438 -31.125 -1.800781 -17.878906 -1.542969 -6.6875 C -1.414062 -0.386719 -1.414062 20.191406 8.875 20.191406 C 11.320312 20.191406 14.277344 19.035156 17.75 16.464844 Z M 10.160156 -39.101562 C 13.375 -68.425781 23.921875 -104.566406 33.183594 -105.984375 C 44.117188 -106.882812 48.746094 -85.144531 10.160156 -39.101562 Z M 10.160156 -39.101562 "/></g></g></g><g fill="#20a4f3" fill-opacity="1"><g transform="translate(19.194611, 259.938293)"><g><path d="M 23.953125 -5.96875 C 24.171875 -5.96875 24.359375 -5.878906 24.515625 -5.703125 L 26.078125 -4.03125 C 24.890625 -2.65625 23.453125 -1.582031 21.765625 -0.8125 C 20.078125 -0.0507812 18.039062 0.328125 15.65625 0.328125 C 13.582031 0.328125 11.695312 -0.03125 10 -0.75 C 8.3125 -1.46875 6.867188 -2.472656 5.671875 -3.765625 C 4.484375 -5.066406 3.5625 -6.625 2.90625 -8.4375 C 2.25 -10.25 1.921875 -12.242188 1.921875 -14.421875 C 1.921875 -16.597656 2.257812 -18.59375 2.9375 -20.40625 C 3.625 -22.21875 4.585938 -23.773438 5.828125 -25.078125 C 7.078125 -26.390625 8.566406 -27.398438 10.296875 -28.109375 C 12.023438 -28.828125 13.9375 -29.1875 16.03125 -29.1875 C 18.09375 -29.1875 19.90625 -28.859375 21.46875 -28.203125 C 23.039062 -27.546875 24.425781 -26.65625 25.625 -25.53125 L 24.34375 -23.734375 C 24.257812 -23.597656 24.148438 -23.484375 24.015625 -23.390625 C 23.890625 -23.304688 23.722656 -23.265625 23.515625 -23.265625 C 23.273438 -23.265625 22.976562 -23.394531 22.625 -23.65625 C 22.28125 -23.925781 21.820312 -24.222656 21.25 -24.546875 C 20.6875 -24.867188 19.984375 -25.160156 19.140625 -25.421875 C 18.296875 -25.679688 17.253906 -25.8125 16.015625 -25.8125 C 14.523438 -25.8125 13.160156 -25.550781 11.921875 -25.03125 C 10.691406 -24.519531 9.628906 -23.769531 8.734375 -22.78125 C 7.835938 -21.800781 7.140625 -20.609375 6.640625 -19.203125 C 6.148438 -17.796875 5.90625 -16.203125 5.90625 -14.421875 C 5.90625 -12.617188 6.160156 -11.015625 6.671875 -9.609375 C 7.191406 -8.203125 7.898438 -7.007812 8.796875 -6.03125 C 9.691406 -5.0625 10.742188 -4.320312 11.953125 -3.8125 C 13.171875 -3.300781 14.484375 -3.046875 15.890625 -3.046875 C 16.753906 -3.046875 17.53125 -3.09375 18.21875 -3.1875 C 18.914062 -3.289062 19.554688 -3.445312 20.140625 -3.65625 C 20.722656 -3.875 21.265625 -4.148438 21.765625 -4.484375 C 22.273438 -4.816406 22.773438 -5.207031 23.265625 -5.65625 C 23.492188 -5.863281 23.722656 -5.96875 23.953125 -5.96875 Z M 23.953125 -5.96875 "/></g></g></g><g fill="#20a4f3" fill-opacity="1"><g transform="translate(51.426516, 259.938293)"><g><path d="M 20.0625 -3.28125 L 20.0625 0 L 3.6875 0 L 3.6875 -28.875 L 7.578125 -28.875 L 7.578125 -3.28125 Z M 20.0625 -3.28125 "/></g></g></g><g fill="#20a4f3" fill-opacity="1"><g transform="translate(77.433785, 259.938293)"><g><path d="M 19.015625 -10.71875 L 14.484375 -22.46875 C 14.347656 -22.8125 14.207031 -23.210938 14.0625 -23.671875 C 13.914062 -24.140625 13.773438 -24.640625 13.640625 -25.171875 C 13.359375 -24.078125 13.070312 -23.171875 12.78125 -22.453125 L 8.234375 -10.71875 Z M 27.15625 0 L 24.140625 0 C 23.785156 0 23.5 -0.0859375 23.28125 -0.265625 C 23.070312 -0.441406 22.914062 -0.660156 22.8125 -0.921875 L 20.109375 -7.890625 L 7.15625 -7.890625 L 4.453125 -0.921875 C 4.367188 -0.679688 4.210938 -0.46875 3.984375 -0.28125 C 3.753906 -0.09375 3.472656 0 3.140625 0 L 0.125 0 L 11.671875 -28.875 L 15.609375 -28.875 Z M 27.15625 0 "/></g></g></g><g fill="#20a4f3" fill-opacity="1"><g transform="translate(110.028297, 259.938293)"><g><path d="M 11.6875 -14.890625 C 12.8125 -14.890625 13.804688 -15.023438 14.671875 -15.296875 C 15.546875 -15.578125 16.273438 -15.96875 16.859375 -16.46875 C 17.441406 -16.976562 17.878906 -17.582031 18.171875 -18.28125 C 18.472656 -18.976562 18.625 -19.75 18.625 -20.59375 C 18.625 -22.3125 18.054688 -23.609375 16.921875 -24.484375 C 15.796875 -25.359375 14.101562 -25.796875 11.84375 -25.796875 L 7.578125 -25.796875 L 7.578125 -14.890625 Z M 25.03125 0 L 21.5625 0 C 20.84375 0 20.316406 -0.273438 19.984375 -0.828125 L 12.484375 -11.140625 C 12.265625 -11.460938 12.019531 -11.691406 11.75 -11.828125 C 11.488281 -11.972656 11.082031 -12.046875 10.53125 -12.046875 L 7.578125 -12.046875 L 7.578125 0 L 3.6875 0 L 3.6875 -28.875 L 11.84375 -28.875 C 13.675781 -28.875 15.253906 -28.6875 16.578125 -28.3125 C 17.910156 -27.945312 19.007812 -27.414062 19.875 -26.71875 C 20.738281 -26.019531 21.378906 -25.175781 21.796875 -24.1875 C 22.210938 -23.195312 22.421875 -22.09375 22.421875 -20.875 C 22.421875 -19.851562 22.257812 -18.898438 21.9375 -18.015625 C 21.613281 -17.128906 21.144531 -16.332031 20.53125 -15.625 C 19.925781 -14.914062 19.179688 -14.3125 18.296875 -13.8125 C 17.421875 -13.320312 16.425781 -12.945312 15.3125 -12.6875 C 15.8125 -12.40625 16.242188 -12 16.609375 -11.46875 Z M 25.03125 0 "/></g></g></g><g fill="#20a4f3" fill-opacity="1"><g transform="translate(140.588208, 259.938293)"><g><path d="M 7.59375 0 L 3.6875 0 L 3.6875 -28.875 L 7.59375 -28.875 Z M 7.59375 0 "/></g></g></g><g fill="#20a4f3" fill-opacity="1"><g transform="translate(157.188011, 259.938293)"><g><path d="M 22.953125 -27.421875 C 22.953125 -26.972656 22.816406 -26.539062 22.546875 -26.125 L 6.203125 -3.1875 L 22.703125 -3.1875 L 22.703125 0 L 1.0625 0 L 1.0625 -1.53125 C 1.0625 -1.75 1.097656 -1.953125 1.171875 -2.140625 C 1.253906 -2.328125 1.347656 -2.507812 1.453125 -2.6875 L 17.828125 -25.6875 L 1.828125 -25.6875 L 1.828125 -28.875 L 22.953125 -28.875 Z M 22.953125 -27.421875 "/></g></g></g><g fill="#20a4f3" fill-opacity="1"><g transform="translate(186.760847, 259.938293)"><g><path d="M 19.015625 -10.71875 L 14.484375 -22.46875 C 14.347656 -22.8125 14.207031 -23.210938 14.0625 -23.671875 C 13.914062 -24.140625 13.773438 -24.640625 13.640625 -25.171875 C 13.359375 -24.078125 13.070312 -23.171875 12.78125 -22.453125 L 8.234375 -10.71875 Z M 27.15625 0 L 24.140625 0 C 23.785156 0 23.5 -0.0859375 23.28125 -0.265625 C 23.070312 -0.441406 22.914062 -0.660156 22.8125 -0.921875 L 20.109375 -7.890625 L 7.15625 -7.890625 L 4.453125 -0.921875 C 4.367188 -0.679688 4.210938 -0.46875 3.984375 -0.28125 C 3.753906 -0.09375 3.472656 0 3.140625 0 L 0.125 0 L 11.671875 -28.875 L 15.609375 -28.875 Z M 27.15625 0 "/></g></g></g><g fill="#20a4f3" fill-opacity="1"><g transform="translate(219.355358, 259.938293)"><g/></g></g><g fill="#20a4f3" fill-opacity="1"><g transform="translate(234.988215, 259.938293)"><g><path d="M 20.0625 -3.28125 L 20.0625 0 L 3.6875 0 L 3.6875 -28.875 L 7.578125 -28.875 L 7.578125 -3.28125 Z M 20.0625 -3.28125 "/></g></g></g><g fill="#20a4f3" fill-opacity="1"><g transform="translate(260.995484, 259.938293)"><g><path d="M 21.5 -3.1875 L 21.484375 0 L 3.6875 0 L 3.6875 -28.875 L 21.484375 -28.875 L 21.484375 -25.6875 L 7.59375 -25.6875 L 7.59375 -16.09375 L 18.84375 -16.09375 L 18.84375 -13.03125 L 7.59375 -13.03125 L 7.59375 -3.1875 Z M 21.5 -3.1875 "/></g></g></g><g fill="#20a4f3" fill-opacity="1"><g transform="translate(289.581244, 259.938293)"><g><path d="M 7.59375 0 L 3.6875 0 L 3.6875 -28.875 L 7.59375 -28.875 Z M 7.59375 0 "/></g></g></g><g fill="#20a4f3" fill-opacity="1"><g transform="translate(306.181036, 259.938293)"><g><path d="M 13.640625 -9.96875 C 13.640625 -8.363281 13.441406 -6.921875 13.046875 -5.640625 C 12.648438 -4.367188 12.066406 -3.289062 11.296875 -2.40625 C 10.523438 -1.53125 9.570312 -0.851562 8.4375 -0.375 C 7.3125 0.09375 6.015625 0.328125 4.546875 0.328125 C 3.222656 0.328125 1.867188 0.140625 0.484375 -0.234375 C 0.515625 -0.628906 0.546875 -1.015625 0.578125 -1.390625 C 0.617188 -1.773438 0.65625 -2.15625 0.6875 -2.53125 C 0.707031 -2.757812 0.789062 -2.941406 0.9375 -3.078125 C 1.082031 -3.222656 1.300781 -3.296875 1.59375 -3.296875 C 1.832031 -3.296875 2.148438 -3.234375 2.546875 -3.109375 C 2.941406 -2.992188 3.476562 -2.9375 4.15625 -2.9375 C 5.039062 -2.9375 5.832031 -3.070312 6.53125 -3.34375 C 7.226562 -3.613281 7.8125 -4.03125 8.28125 -4.59375 C 8.75 -5.15625 9.109375 -5.875 9.359375 -6.75 C 9.609375 -7.632812 9.734375 -8.679688 9.734375 -9.890625 L 9.734375 -28.875 L 13.640625 -28.875 Z M 13.640625 -9.96875 "/></g></g></g><g fill="#20a4f3" fill-opacity="1"><g transform="translate(328.522007, 259.938293)"><g><path d="M 19.015625 -10.71875 L 14.484375 -22.46875 C 14.347656 -22.8125 14.207031 -23.210938 14.0625 -23.671875 C 13.914062 -24.140625 13.773438 -24.640625 13.640625 -25.171875 C 13.359375 -24.078125 13.070312 -23.171875 12.78125 -22.453125 L 8.234375 -10.71875 Z M 27.15625 0 L 24.140625 0 C 23.785156 0 23.5 -0.0859375 23.28125 -0.265625 C 23.070312 -0.441406 22.914062 -0.660156 22.8125 -0.921875 L 20.109375 -7.890625 L 7.15625 -7.890625 L 4.453125 -0.921875 C 4.367188 -0.679688 4.210938 -0.46875 3.984375 -0.28125 C 3.753906 -0.09375 3.472656 0 3.140625 0 L 0.125 0 L 11.671875 -28.875 L 15.609375 -28.875 Z M 27.15625 0 "/></g></g></g></svg>