<svg xmlns="http://www.w3.org/2000/svg" xmlns:xlink="http://www.w3.org/1999/xlink" width="500" zoomAndPan="magnify" viewBox="0 0 375 374.999991" height="500" preserveAspectRatio="xMidYMid meet" version="1.0"><defs><g/></defs><g fill="#020887" fill-opacity="1"><g transform="translate(122.471694, 158.969214)"><g><path d="M 81.78125 -17.625 C 73.566406 -4.109375 54.148438 23.078125 44.4375 24.722656 C 31.515625 26.960938 27.261719 2.464844 32.414062 -23.078125 C 67.214844 -29.648438 86.261719 -71.175781 63.632812 -71.546875 C 44.660156 -71.847656 31.144531 -44.289062 27.484375 -23.75 C 1.570312 -23.078125 -11.875 -58.402344 20.089844 -64.527344 C 21.582031 -63.109375 23.226562 -65.722656 20.390625 -65.871094 C -12.546875 -60.046875 -1.867188 -22.703125 27.261719 -22.554688 C 22.703125 0.148438 25.691406 27.410156 43.390625 26.140625 C 54.742188 25.316406 75.65625 -4.628906 83.050781 -17.550781 C 83.050781 -17.925781 82.003906 -18 81.78125 -17.625 Z M 64.230469 -70.054688 C 83.945312 -69.605469 65.425781 -30.917969 32.710938 -24.347656 C 37.867188 -48.546875 50.710938 -70.351562 64.230469 -70.054688 Z M 64.230469 -70.054688 "/></g></g></g><g fill="#020887" fill-opacity="1"><g transform="translate(203.951505, 158.969214)"><g><path d="M 10.304688 9.558594 C 17.027344 4.554688 26.511719 -12.171875 30.621094 -17.550781 C 30.621094 -17.925781 29.648438 -17.925781 29.351562 -17.625 C 26.140625 -13.519531 15.386719 4.929688 8.960938 9.1875 C 0.894531 14.339844 2.6875 -0.972656 3.136719 -5.152344 C 3.734375 -11.277344 4.929688 -17.699219 5.675781 -20.761719 C 30.097656 -48.171875 27.183594 -62.660156 19.640625 -62.660156 C 10.457031 -62.660156 3.660156 -44.363281 0.671875 -25.617188 C -0.523438 -18.074219 -1.046875 -10.382812 -0.894531 -3.882812 C -0.820312 -0.222656 -0.820312 11.726562 5.152344 11.726562 C 6.574219 11.726562 8.289062 11.054688 10.304688 9.558594 Z M 5.898438 -22.703125 C 7.765625 -39.730469 13.890625 -60.71875 19.269531 -61.539062 C 25.617188 -62.0625 28.304688 -49.441406 5.898438 -22.703125 Z M 5.898438 -22.703125 "/></g></g></g><g fill="#20a4f3" fill-opacity="1"><g transform="translate(90.041791, 210.649484)"><g><path d="M 9.71875 0.265625 C 11.792969 0.265625 13.597656 -0.335938 15.023438 -1.382812 L 15.023438 -2.519531 C 13.707031 -1.402344 11.792969 -0.714844 9.71875 -0.714844 C 5.371094 -0.714844 2.25 -3.476562 2.25 -7.667969 C 2.25 -11.769531 5.347656 -14.867188 9.695312 -14.867188 C 11.390625 -14.867188 12.839844 -14.421875 14.066406 -13.640625 L 14.199219 -14.800781 C 12.929688 -15.46875 11.34375 -15.847656 9.71875 -15.847656 C 4.769531 -15.847656 1.226562 -12.371094 1.226562 -7.667969 C 1.226562 -2.921875 4.746094 0.265625 9.71875 0.265625 Z M 9.71875 0.265625 "/></g></g></g><g fill="#20a4f3" fill-opacity="1"><g transform="translate(108.631618, 210.649484)"><g><path d="M 1.78125 0 L 12.863281 0 L 12.863281 -0.980469 L 2.832031 -0.980469 L 2.832031 -15.601562 L 1.78125 -15.601562 Z M 1.78125 0 "/></g></g></g><g fill="#20a4f3" fill-opacity="1"><g transform="translate(125.282301, 210.649484)"><g><path d="M 0.265625 0 L 1.449219 0 L 2.898438 -3.210938 L 12.792969 -3.210938 L 14.265625 0 L 15.425781 0 L 8.003906 -15.847656 L 7.691406 -15.847656 Z M 3.320312 -4.078125 L 7.777344 -13.820312 L 7.914062 -13.820312 L 12.394531 -4.078125 Z M 3.320312 -4.078125 "/></g></g></g><g fill="#20a4f3" fill-opacity="1"><g transform="translate(143.916703, 210.649484)"><g><path d="M 1.78125 0 L 2.808594 0 L 2.808594 -6.664062 L 8.335938 -6.6875 L 12.570312 0 L 13.707031 0 L 9.40625 -6.753906 C 11.859375 -7.132812 13.574219 -8.871094 13.574219 -11.210938 C 13.574219 -13.863281 11.414062 -15.601562 8.425781 -15.601562 L 1.78125 -15.601562 Z M 2.808594 -7.535156 L 2.808594 -14.621094 L 8.292969 -14.621094 C 10.742188 -14.621094 12.527344 -13.261719 12.527344 -11.121094 C 12.527344 -8.984375 10.742188 -7.535156 8.292969 -7.535156 Z M 2.808594 -7.535156 "/></g></g></g><g fill="#20a4f3" fill-opacity="1"><g transform="translate(161.63726, 210.649484)"><g><path d="M 1.78125 0 L 2.832031 0 L 2.832031 -15.601562 L 1.78125 -15.601562 Z M 1.78125 0 "/></g></g></g><g fill="#20a4f3" fill-opacity="1"><g transform="translate(169.194045, 210.649484)"><g><path d="M 1.046875 0 L 13.417969 0 L 13.417969 -0.980469 L 2.941406 -0.980469 L 2.875 -1.070312 L 13.152344 -15.335938 L 13.152344 -15.601562 L 1.382812 -15.601562 L 1.382812 -14.621094 L 11.277344 -14.621094 L 11.367188 -14.511719 L 1.046875 -0.222656 Z M 1.046875 0 "/></g></g></g><g fill="#20a4f3" fill-opacity="1"><g transform="translate(186.602556, 210.649484)"><g><path d="M 0.265625 0 L 1.449219 0 L 2.898438 -3.210938 L 12.792969 -3.210938 L 14.265625 0 L 15.425781 0 L 8.003906 -15.847656 L 7.691406 -15.847656 Z M 3.320312 -4.078125 L 7.777344 -13.820312 L 7.914062 -13.820312 L 12.394531 -4.078125 Z M 3.320312 -4.078125 "/></g></g></g><g fill="#20a4f3" fill-opacity="1"><g transform="translate(205.236958, 210.649484)"><g/></g></g><g fill="#20a4f3" fill-opacity="1"><g transform="translate(214.197944, 210.649484)"><g><path d="M 1.78125 0 L 12.863281 0 L 12.863281 -0.980469 L 2.832031 -0.980469 L 2.832031 -15.601562 L 1.78125 -15.601562 Z M 1.78125 0 "/></g></g></g><g fill="#20a4f3" fill-opacity="1"><g transform="translate(230.848627, 210.649484)"><g><path d="M 1.78125 0 L 13.394531 0 L 13.394531 -0.980469 L 2.808594 -0.980469 L 2.808594 -7.511719 L 11.589844 -7.511719 L 11.589844 -8.402344 L 2.808594 -8.402344 L 2.808594 -14.621094 L 13.128906 -14.621094 L 13.128906 -15.601562 L 1.78125 -15.601562 Z M 1.78125 0 "/></g></g></g><g fill="#20a4f3" fill-opacity="1"><g transform="translate(248.413156, 210.649484)"><g><path d="M 1.78125 0 L 2.832031 0 L 2.832031 -15.601562 L 1.78125 -15.601562 Z M 1.78125 0 "/></g></g></g><g fill="#20a4f3" fill-opacity="1"><g transform="translate(255.969941, 210.649484)"><g><path d="M 3.007812 0.246094 C 6.710938 0.246094 8.582031 -1.78125 8.582031 -5.972656 L 8.582031 -15.601562 L 7.554688 -15.601562 L 7.554688 -6.0625 C 7.554688 -2.472656 6.085938 -0.714844 3.121094 -0.714844 C 2.09375 -0.714844 1.160156 -1.003906 0.402344 -1.359375 L 0.246094 -0.355469 C 0.980469 -0.0429688 2.027344 0.246094 3.007812 0.246094 Z M 3.007812 0.246094 "/></g></g></g><g fill="#20a4f3" fill-opacity="1"><g transform="translate(269.277278, 210.649484)"><g><path d="M 0.265625 0 L 1.449219 0 L 2.898438 -3.210938 L 12.792969 -3.210938 L 14.265625 0 L 15.425781 0 L 8.003906 -15.847656 L 7.691406 -15.847656 Z M 3.320312 -4.078125 L 7.777344 -13.820312 L 7.914062 -13.820312 L 12.394531 -4.078125 Z M 3.320312 -4.078125 "/></g></g></g></svg>