<svg id="visual" viewBox="0 0 900 600" width="900" height="600" xmlns="http://www.w3.org/2000/svg" xmlns:xlink="http://www.w3.org/1999/xlink" version="1.1"><path d="M0 393L113 418L225 387L338 396L450 370L563 414L675 380L788 361L900 416L900 601L788 601L675 601L563 601L450 601L338 601L225 601L113 601L0 601Z" fill="#20a4f3"></path><path d="M0 389L113 432L225 388L338 405L450 447L563 445L675 399L788 453L900 446L900 601L788 601L675 601L563 601L450 601L338 601L225 601L113 601L0 601Z" fill="#0088e3"></path><path d="M0 423L113 483L225 448L338 438L450 434L563 474L675 429L788 484L900 450L900 601L788 601L675 601L563 601L450 601L338 601L225 601L113 601L0 601Z" fill="#006bd1"></path><path d="M0 469L113 497L225 463L338 494L450 469L563 485L675 492L788 516L900 492L900 601L788 601L675 601L563 601L450 601L338 601L225 601L113 601L0 601Z" fill="#004dbb"></path><path d="M0 525L113 534L225 521L338 537L450 527L563 530L675 511L788 545L900 501L900 601L788 601L675 601L563 601L450 601L338 601L225 601L113 601L0 601Z" fill="#002fa2"></path><path d="M0 540L113 545L225 537L338 538L450 547L563 558L675 560L788 541L900 546L900 601L788 601L675 601L563 601L450 601L338 601L225 601L113 601L0 601Z" fill="#020887"></path></svg>